<?xml version="1.0" encoding="UTF-8"?>
<!DOCTYPE svg PUBLIC "-//W3C//DTD SVG 1.1//EN" "http://www.w3.org/Graphics/SVG/1.1/DTD/svg11.dtd">
<svg xmlns="http://www.w3.org/2000/svg" version="1.1" width="352px" height="352px" style="shape-rendering:geometricPrecision; text-rendering:geometricPrecision; image-rendering:optimizeQuality; fill-rule:evenodd; clip-rule:evenodd" xmlns:xlink="http://www.w3.org/1999/xlink">
<g><path style="opacity:0.985" fill="#fefefe" d="M 159.5,4.5 C 212.501,4.33334 265.501,4.50001 318.5,5C 326.188,5.16855 333.855,5.66855 341.5,6.5C 336.751,24.3331 328.584,40.3331 317,54.5C 304.535,69.4701 290.368,82.4701 274.5,93.5C 274.167,93.1667 273.833,92.8333 273.5,92.5C 278.392,84.5585 281.726,76.0585 283.5,67C 233.173,65.6634 182.839,65.3301 132.5,66C 93.8887,64.5454 68.3887,82.0454 56,118.5C 50.8677,134.03 46.201,149.696 42,165.5C 40.5124,167.82 38.6791,167.987 36.5,166C 17.8469,150.074 8.84687,129.741 9.5,105C 11.7343,57.8338 35.0676,26.5004 79.5,11C 88.3431,8.64144 97.3431,7.30811 106.5,7C 124.328,6.20396 141.995,5.37063 159.5,4.5 Z"/></g>
<g><path style="opacity:0.985" fill="#fefefe" d="M 167.5,122.5 C 203.936,121.794 240.27,123.294 276.5,127C 307.934,130.319 316.101,145.819 301,173.5C 280.061,198.108 256.894,220.275 231.5,240C 184.68,276.266 134.347,307.266 80.5,333C 68.0286,338.324 55.3619,343.157 42.5,347.5C 42.1667,347.167 41.8333,346.833 41.5,346.5C 55.0305,308.575 68.3639,270.575 81.5,232.5C 106.493,231.667 131.493,231.167 156.5,231C 167.691,230.56 178.691,228.893 189.5,226C 197.831,222.009 204.664,216.176 210,208.5C 216.18,199.14 221.014,189.14 224.5,178.5C 183.836,177.904 143.169,177.57 102.5,177.5C 108.198,159.574 114.198,141.741 120.5,124C 136.339,123.831 152.005,123.331 167.5,122.5 Z"/></g>
</svg>
